# xmcd
#
# Track frame offsets:
#	150
#	12550
#	26940
#	39597
#	54000
#	70922
#	88215
#	103842
#	117005
#	135735
#	152935
#	166717
#
# Disc length: 2433 seconds
#
# Revision: 12
# Processed by: cddbd v1.5.2PL0 Copyright (c) Steve Scherf et al.
# Submitted via: EasyCDDAExtractor 15.3.0.1
#
DISCID=9d097f0c
DTITLE=Selena - 12 Super Exitos
DYEAR=1994
DGENRE=Latin
TTITLE0=Si Una Vez
TTITLE1=La Llamada
TTITLE2=No Debes Jugar
TTITLE3=Las Cadenas
TTITLE4=Techno Cumbia
TTITLE5=Tu Robaste Mi Corazon
TTITLE6=Bidi Bidi Bom Bom
TTITLE7=No Quiero Saber
TTITLE8=La Carcacha
TTITLE9=Missing My Baby
TTITLE10=Como La Flor
TTITLE11=Que Creias
EXTD=
EXTT0=
EXTT1=
EXTT2=
EXTT3=
EXTT4=
EXTT5=
EXTT6=
EXTT7=
EXTT8=
EXTT9=
EXTT10=
EXTT11=
PLAYORDER=
